<svg width="340" height="538" viewBox="0 0 340 538" fill="none" xmlns="http://www.w3.org/2000/svg">
<path d="M339.562 537.257H195.516C182.291 536.542 132.251 532.61 91.5031 492.575C56.1172 457.902 48.2536 417.152 46.4664 405.713C34.3137 334.222 75.776 277.744 94.3626 251.649C114.379 224.483 136.182 205.537 152.982 193.027C156.556 190.524 161.203 190.882 164.062 193.741C181.219 209.827 198.376 225.912 215.533 241.641C221.252 247.002 230.188 243.07 230.545 235.564C231.975 184.09 233.762 132.616 235.192 81.1427C235.549 75.0659 229.83 70.7764 223.754 72.2063C170.496 87.5769 117.238 102.947 63.9807 118.318C56.1171 120.82 55.4023 131.901 62.9084 135.119C85.0693 144.412 107.588 153.349 129.749 162.643C136.182 165.145 137.255 173.724 131.893 177.656C116.166 189.809 97.222 207.325 79.7077 231.274C66.4827 249.505 20.7311 303.838 26.0926 375.329C29.3095 416.437 48.9685 453.612 30.7393 496.865C22.5184 516.167 9.65065 529.036 0.714803 536.9C0.357369 357.814 0.357434 179.086 0 0C62.9084 0.357457 126.174 0.3575 189.083 0.714957C275.224 15.0132 336.703 80.7852 339.205 150.847C340.992 195.886 317.044 245.573 279.513 273.812C242.34 301.336 202.665 302.766 188.368 302.408C143.331 305.625 109.017 343.516 109.375 386.053C109.732 424.658 138.684 458.974 178.717 466.481C208.741 465.766 238.766 465.051 268.433 464.336C268.433 445.033 268.79 425.731 268.79 406.428L188.01 404.641C188.368 381.406 188.725 358.529 189.083 335.294L339.205 335.652V537.257H339.562Z" fill="#13206D"/>
</svg>
